<svg id="Layer_1" viewBox="0 0 512 512" xmlns="http://www.w3.org/2000/svg" data-name="Layer 1"><path d="m320.331 328.931a72.563 72.563 0 0 1 -128.659 0 12 12 0 1 1 21.279-11.1 48.561 48.561 0 0 0 86.1 0 12 12 0 1 1 21.283 11.1zm31.629-64.279a17.036 17.036 0 1 1 17.04-17.041 17.05 17.05 0 0 1 -17.043 17.041zm0-58.071a41.036 41.036 0 1 0 41.04 41.03 41.082 41.082 0 0 0 -41.038-41.03zm-191.921 58.071a17.036 17.036 0 1 1 17.029-17.041 17.055 17.055 0 0 1 -17.029 17.041zm0-58.071a41.036 41.036 0 1 0 41.03 41.03 41.084 41.084 0 0 0 -41.03-41.03zm325.132 120.15a19.742 19.742 0 0 1 -19.723 19.729h-7.2v-141.5h7.2a19.743 19.743 0 0 1 19.723 19.729v102.04zm-50.921 36.9v-175.841a42.727 42.727 0 0 0 -42.681-42.669h-271.139a42.727 42.727 0 0 0 -42.681 42.669v175.842a42.725 42.725 0 0 0 42.681 42.668h88.4a12.026 12.026 0 0 1 10.4 6l36.77 63.7 36.78-63.7a12 12 0 0 1 10.392-6h88.4a42.725 42.725 0 0 0 42.681-42.669zm-407.422-36.9v-102.04a19.743 19.743 0 0 1 19.722-19.729h7.2v141.5h-7.2a19.742 19.742 0 0 1 -19.722-19.729zm203.911-277.469a25.261 25.261 0 1 1 25.261 25.259 25.288 25.288 0 0 1 -25.26-25.259zm234.709 131.7h-7.548a66.768 66.768 0 0 0 -66.332-59.842h-123.568v-24.088a49.261 49.261 0 1 0 -24 0v24.088h-123.57a66.761 66.761 0 0 0 -66.33 59.842h-7.55a43.778 43.778 0 0 0 -43.723 43.729v102.04a43.776 43.776 0 0 0 43.723 43.729h7.55a66.761 66.761 0 0 0 66.33 59.84h81.478l43.7 75.7a12 12 0 0 0 20.783 0l43.709-75.7h81.469a66.768 66.768 0 0 0 66.331-59.84h7.547a43.776 43.776 0 0 0 43.723-43.729v-102.04a43.777 43.777 0 0 0 -43.722-43.729z" fill="#0b427e" fill-rule="evenodd"/></svg>